<svg xmlns="http://www.w3.org/2000/svg" viewBox="0 0 1218.33 737.37"><defs><style>.cls-1{fill:#adadad;}.cls-2,.cls-3,.cls-4,.cls-5{fill:none;stroke:#000;stroke-miterlimit:10;}.cls-2{stroke-width:1.02px;}.cls-3{stroke-width:1.37px;}.cls-4{stroke-width:1.24px;}.cls-5{stroke-width:0.83px;}</style></defs><title>polygon_engineering-01</title><g id="polygons"><rect id="sheet_metal" class="cls-1" y="0.68" width="1067" height="736"/></g><g id="rulers"><g id="sixteenths"><line class="cls-2" x1="1171.12" y1="1.18" x2="1171.12" y2="737.18"/><line class="cls-3" x1="1123.92" y1="0.68" x2="1218.33" y2="0.68"/><line class="cls-2" x1="1145.12" y1="92.68" x2="1197.12" y2="92.68"/><line class="cls-3" x1="1123.92" y1="736.68" x2="1218.33" y2="736.68"/><line class="cls-2" x1="1145.12" y1="184.68" x2="1197.12" y2="184.68"/><line class="cls-4" x1="1132.65" y1="368.68" x2="1209.6" y2="368.68"/><line class="cls-2" x1="1145.12" y1="644.68" x2="1197.12" y2="644.68"/><line class="cls-2" x1="1145.12" y1="552.68" x2="1197.12" y2="552.68"/><line class="cls-5" x1="1153.67" y1="46.68" x2="1188.57" y2="46.68"/><line class="cls-5" x1="1153.67" y1="138.68" x2="1188.57" y2="138.68"/><line class="cls-5" x1="1153.67" y1="414.68" x2="1188.57" y2="414.68"/><line class="cls-5" x1="1153.67" y1="506.68" x2="1188.57" y2="506.68"/><line class="cls-5" x1="1153.67" y1="690.68" x2="1188.57" y2="690.68"/><line class="cls-5" x1="1153.67" y1="598.68" x2="1188.57" y2="598.68"/><line class="cls-5" x1="1153.67" y1="230.68" x2="1188.57" y2="230.68"/><line class="cls-5" x1="1153.67" y1="322.68" x2="1188.57" y2="322.68"/><line class="cls-2" x1="1145.5" y1="276.68" x2="1197.5" y2="276.68"/><line class="cls-2" x1="1145.12" y1="460.68" x2="1197.12" y2="460.68"/></g></g></svg>