<svg xmlns="http://www.w3.org/2000/svg" viewBox="0 0 1096 768"><defs><style>.cls-1,.cls-2,.cls-3,.cls-4{fill:none;stroke:#000;stroke-miterlimit:10;}.cls-1{stroke-width:1.02px;}.cls-2{stroke-width:1.37px;}.cls-3{stroke-width:1.24px;}.cls-4{stroke-width:0.83px;}</style></defs><title>toolbox</title><g id="rulers"><g id="sixteenths"><line class="cls-1" x1="70.62" y1="14" x2="70.62" y2="750"/><line class="cls-2" x1="23.42" y1="13.5" x2="117.83" y2="13.5"/><line class="cls-1" x1="44.62" y1="105.5" x2="96.62" y2="105.5"/><line class="cls-2" x1="23.42" y1="749.5" x2="117.83" y2="749.5"/><line class="cls-1" x1="44.62" y1="197.5" x2="96.62" y2="197.5"/><line class="cls-3" x1="32.15" y1="381.5" x2="109.1" y2="381.5"/><line class="cls-1" x1="44.62" y1="657.5" x2="96.62" y2="657.5"/><line class="cls-1" x1="44.62" y1="565.5" x2="96.62" y2="565.5"/><line class="cls-4" x1="53.17" y1="59.5" x2="88.07" y2="59.5"/><line class="cls-4" x1="53.17" y1="151.5" x2="88.07" y2="151.5"/><line class="cls-4" x1="53.17" y1="427.5" x2="88.07" y2="427.5"/><line class="cls-4" x1="53.17" y1="519.5" x2="88.07" y2="519.5"/><line class="cls-4" x1="53.17" y1="703.5" x2="88.07" y2="703.5"/><line class="cls-4" x1="53.17" y1="611.5" x2="88.07" y2="611.5"/><line class="cls-4" x1="53.17" y1="243.5" x2="88.07" y2="243.5"/><line class="cls-4" x1="53.17" y1="335.5" x2="88.07" y2="335.5"/><line class="cls-1" x1="45" y1="289.5" x2="97" y2="289.5"/><line class="cls-1" x1="44.62" y1="473.5" x2="96.62" y2="473.5"/></g></g></svg>